Simulation
nRows=27
nColumns=15
endheader
time  TH_x TH_y TH_z SC_y  SC_z  SC_x  AC_y  AC_z  AC_x  GH_y  GH_z  GH_yy  EL_x  PS_y
1.424999999999999  0.000000  0.000000  0.000000  -29.5632687250626  5.155152540771852  12.57282478445987  53.930200766289325  26.746291984759555  15.338105046220305  40.57564098194189  47.87400915401627  -36.382216369005576  24.763830980809836  120.000000
1.453499999999999  0.000000  0.000000  0.000000  -29.43761825482708  5.237099882097892  11.506458754051186  54.21444057135179  26.665547705440336  14.647257898807165  41.68682845586294  47.678707313328076  -36.85598447596824  24.5756905501544  120.000000
1.4819999999999989  0.000000  0.000000  0.000000  -29.31908357032171  5.298903769467687  10.021014836344742  54.43949075905453  26.690509701965514  14.165076237090688  42.869158250521394  47.40061732877558  -37.240536911723815  24.377478481768076  120.000000
1.5104999999999988  0.000000  0.000000  0.000000  -29.20155906761385  5.323800000773415  8.11828041363904  54.576135201444906  26.825855097902082  13.951022530828254  44.08562320974769  46.9926254714896  -37.49051796244419  24.168281748214195  120.000000
1.538999999999999  0.000000  0.000000  0.000000  -29.066742583280746  5.298096741042893  5.8379565260248585  54.595385470435524  27.068321029841147  14.032766425338288  45.29850922769139  46.390310863046565  -37.56983617245432  23.94440271400461  120.000000
1.567499999999999  0.000000  0.000000  0.000000  -28.887580596564646  5.21590284049441  3.2654379590845903  54.47554930105777  27.399741621629186  14.396730778573783  46.475145890746965  45.52334649117478  -37.457678322816385  23.701482842052947  120.000000
1.595999999999999  0.000000  0.000000  0.000000  -28.63779097027022  5.082851545341242  0.5242992682628491  54.208795997632826  27.789340616088346  14.993399278490067  47.59253921880543  44.33449967744663  -37.15153221666221  23.437421269123735  120.000000
1.624499999999999  0.000000  0.000000  0.000000  -28.300875934542773  4.914049100559736  -2.2474109156325515  53.806230614031605  28.203191557914426  15.751207302948663  48.64019952792632  42.79922535711057  -36.667959424115274  23.153978931237504  120.000000
1.652999999999999  0.000000  0.000000  0.000000  -27.875001467082075  4.727353686492264  -4.9254538283270515  53.29566192342821  28.60982967237251  16.592567898852455  49.61862240795348  40.9345322623029  -36.039272818536624  22.85696204404883  120.000000
1.6814999999999989  0.000000  0.000000  0.000000  -27.376615046781478  4.535978780907474  -7.418322555182152  52.71417888712887  28.980466302259696  17.44621481382299  50.53579591898679  38.793242967460806  -35.30742512703378  22.553370289620258  120.000000
1.7099999999999989  0.000000  0.000000  0.000000  -26.8395647004732  4.343899448311975  -9.672746030587515  52.10149342859855  29.289343709989218  18.253241161678126  51.40238394455419  36.44951486366392  -34.51632144812601  22.24794211803526  120.000000
1.7384999999999988  0.000000  0.000000  0.000000  -26.30698659725459  4.144605418629912  -11.667753520970754  51.4937238377948  29.515686118363025  18.968821786733535  52.22785444906559  33.982800938356256  -33.703517383466824  21.942179033950445  120.000000
1.7669999999999988  0.000000  0.000000  0.000000  -25.822005561688993  3.926000551533874  -13.40303582065185  50.918966628232035  29.644909050998162  19.563009982359876  53.017736789646136  31.465202549756313  -32.89220597607066  21.635627947343384  120.000000
1.7954999999999988  0.000000  0.000000  0.000000  -25.420221557786434  3.677627859707138  -14.888205540983403  50.39574194501156  29.671304674474122  20.019827233635294  53.7721851532708  28.95348935538728  -32.08663323187545  21.328470875563372  120.000000
1.8239999999999987  0.000000  0.000000  0.000000  -25.123476685386112  3.3952604834306492  -16.135032414877006  49.932486229523484  29.599425744274555  20.335320657004456  54.48588135574844  26.485036249981697  -31.270681848389213  21.023681435319617  120.000000
1.8524999999999987  0.000000  0.000000  0.000000  -24.936397039176175  3.0834721660521383  -17.153929650003153  49.52942844640312  29.44281155521615  20.515552558408327  55.1498452345631  24.077692847012717  -30.411969351946667  20.727801161350182  120.000000
1.8809999999999987  0.000000  0.000000  0.000000  -24.846813948795685  2.7555752822869706  -17.95467631830873  49.18290192026102  29.221005853660532  20.57391967961638  55.753865422503466  21.73438994628344  -29.470497611140125  20.45046884770218  120.000000
1.9094999999999986  0.000000  0.000000  0.000000  -24.829398364092842  2.430713124932526  -18.549957436007077  48.88993322112215  28.95517968657165  20.5289690911887  56.288234509971225  19.451225667091837  -28.41017813648094  20.202599600357622  120.000000
1.9379999999999986  0.000000  0.000000  0.000000  -24.851979188518342  2.129037973071801  -18.958871390456203  48.65037431545644  28.66319671319647  20.40339612811993  56.743695241535846  17.22563251167692  -27.20897574829057  19.993778868874152  120.000000
1.9664999999999986  0.000000  0.000000  0.000000  -24.882978929432873  1.86662603766391  -19.208922940687795  48.46459400495246  28.355153405475342  20.223367002737767  57.110168275915  15.062422731288722  -25.864785709462282  19.829826308914374  120.000000
1.9949999999999986  0.000000  0.000000  0.000000  -24.897757462033944  1.652612350301685  -19.335741692330053  48.32791996296807  28.03199599251734  20.01759708886227  57.3749878278696  12.974916785730217  -24.3957662692544  19.71089852124428  120.000000
2.0234999999999985  0.000000  0.000000  0.000000  -24.882752687706574  1.4900316799636493  -19.38082781739195  48.22519011185988  27.68979298204995  19.81469253835958  57.52384523163854  10.98280050442959  -22.832965946693363  19.632550207736223  120.000000
2.0519999999999987  0.000000  0.000000  0.000000  -24.833728650522264  1.3806314778791648  -19.387083430074167  48.12813051980716  27.327489865470465  19.639355632897082  57.54458556750357  9.107565363508947  -21.209676269857326  19.591513321569632  120.000000
2.0804999999999985  0.000000  0.000000  0.000000  -24.751348093203568  1.3285712534439262  -19.385732206364075  48.00290177520862  26.949821779458947  19.505986456518105  57.43155252527824  7.363131181874781  -19.5521584827485  19.58802291048394  120.000000
2.1089999999999987  0.000000  0.000000  0.000000  -24.639821139784768  1.3390508697695342  -19.38708449974809  47.821387183855485  26.566295308804943  19.414333217450938  57.188976366292295  5.749580018096515  -17.87562745864866  19.625202024952628  120.000000
2.1374999999999984  0.000000  0.000000  0.000000  -24.50468194268488  1.4152341603434624  -19.389825595950384  47.568319626774304  26.189555006197935  19.354466456469005  56.830224989396676  4.25899241576814  -16.18532869437956  19.706429828429037  120.000000
2.1659999999999986  0.000000  0.000000  0.000000  -24.3504104791547  1.5528168168432233  -19.38780789814151  47.250592199524874  25.829144604977042  19.31234343699522  56.375781225786454  2.884005795994711  -14.480863562710288  19.83167204720911  120.000000
